<mxfile host="app.diagrams.net" modified="2024-01-12T13:50:57.423Z" agent="Mozilla/5.0 (Windows NT 10.0; Win64; x64) AppleWebKit/537.36 (KHTML, like Gecko) Chrome/120.0.0.0 Safari/537.36 Edg/120.0.0.0" etag="udW9YU-W9NsRhxvBAD2W" version="22.1.18" type="github">
  <diagram id="C5RBs43oDa-KdzZeNtuy" name="Page-1">
    <mxGraphModel dx="1179" dy="669" grid="1" gridSize="10" guides="1" tooltips="1" connect="1" arrows="1" fold="1" page="1" pageScale="1" pageWidth="827" pageHeight="1169" math="0" shadow="0">
      <root>
        <mxCell id="WIyWlLk6GJQsqaUBKTNV-0" />
        <mxCell id="WIyWlLk6GJQsqaUBKTNV-1" parent="WIyWlLk6GJQsqaUBKTNV-0" />
        <mxCell id="Rgezvz7ngerWHo1BFbQd-29" style="edgeStyle=orthogonalEdgeStyle;rounded=0;orthogonalLoop=1;jettySize=auto;html=1;exitX=1;exitY=0.3333333333333333;exitDx=0;exitDy=0;exitPerimeter=0;" edge="1" parent="WIyWlLk6GJQsqaUBKTNV-1" source="Rgezvz7ngerWHo1BFbQd-0" target="Rgezvz7ngerWHo1BFbQd-2">
          <mxGeometry relative="1" as="geometry" />
        </mxCell>
        <mxCell id="Rgezvz7ngerWHo1BFbQd-0" value="Mijoz" style="shape=umlActor;verticalLabelPosition=bottom;verticalAlign=top;html=1;outlineConnect=0;labelBackgroundColor=none;fontFamily=Comic Sans MS;" vertex="1" parent="WIyWlLk6GJQsqaUBKTNV-1">
          <mxGeometry x="20" y="200" width="30" height="60" as="geometry" />
        </mxCell>
        <mxCell id="Rgezvz7ngerWHo1BFbQd-30" style="edgeStyle=orthogonalEdgeStyle;rounded=0;orthogonalLoop=1;jettySize=auto;html=1;exitX=0.5;exitY=0;exitDx=0;exitDy=0;entryX=0.5;entryY=1;entryDx=0;entryDy=0;" edge="1" parent="WIyWlLk6GJQsqaUBKTNV-1" source="Rgezvz7ngerWHo1BFbQd-1" target="Rgezvz7ngerWHo1BFbQd-4">
          <mxGeometry relative="1" as="geometry" />
        </mxCell>
        <mxCell id="Rgezvz7ngerWHo1BFbQd-38" style="edgeStyle=orthogonalEdgeStyle;rounded=0;orthogonalLoop=1;jettySize=auto;html=1;exitX=1;exitY=1;exitDx=0;exitDy=0;entryX=0;entryY=0.5;entryDx=0;entryDy=0;" edge="1" parent="WIyWlLk6GJQsqaUBKTNV-1" source="Rgezvz7ngerWHo1BFbQd-1" target="Rgezvz7ngerWHo1BFbQd-26">
          <mxGeometry relative="1" as="geometry" />
        </mxCell>
        <mxCell id="Rgezvz7ngerWHo1BFbQd-1" value="SERVER" style="ellipse;whiteSpace=wrap;html=1;fontFamily=Comic Sans MS;fillColor=#B5B5B5;" vertex="1" parent="WIyWlLk6GJQsqaUBKTNV-1">
          <mxGeometry x="370" y="190" width="120" height="80" as="geometry" />
        </mxCell>
        <mxCell id="Rgezvz7ngerWHo1BFbQd-2" value="Ro&#39;yxatdan o&#39;tish" style="ellipse;whiteSpace=wrap;html=1;fontFamily=Comic Sans MS;" vertex="1" parent="WIyWlLk6GJQsqaUBKTNV-1">
          <mxGeometry x="370" y="410" width="120" height="80" as="geometry" />
        </mxCell>
        <mxCell id="Rgezvz7ngerWHo1BFbQd-31" style="edgeStyle=orthogonalEdgeStyle;rounded=0;orthogonalLoop=1;jettySize=auto;html=1;exitX=0;exitY=0.5;exitDx=0;exitDy=0;entryX=1;entryY=0.5;entryDx=0;entryDy=0;" edge="1" parent="WIyWlLk6GJQsqaUBKTNV-1" source="Rgezvz7ngerWHo1BFbQd-4" target="Rgezvz7ngerWHo1BFbQd-10">
          <mxGeometry relative="1" as="geometry" />
        </mxCell>
        <mxCell id="Rgezvz7ngerWHo1BFbQd-4" value="autentifikatsiya" style="ellipse;whiteSpace=wrap;html=1;fontFamily=Comic Sans MS;" vertex="1" parent="WIyWlLk6GJQsqaUBKTNV-1">
          <mxGeometry x="370" y="40" width="120" height="80" as="geometry" />
        </mxCell>
        <mxCell id="Rgezvz7ngerWHo1BFbQd-10" value="Mebel uchun zakas berish" style="ellipse;whiteSpace=wrap;html=1;fontFamily=Comic Sans MS;" vertex="1" parent="WIyWlLk6GJQsqaUBKTNV-1">
          <mxGeometry x="160" y="40" width="120" height="80" as="geometry" />
        </mxCell>
        <mxCell id="Rgezvz7ngerWHo1BFbQd-32" style="edgeStyle=orthogonalEdgeStyle;rounded=0;orthogonalLoop=1;jettySize=auto;html=1;exitX=0;exitY=1;exitDx=0;exitDy=0;exitPerimeter=0;entryX=1;entryY=0.5;entryDx=0;entryDy=0;" edge="1" parent="WIyWlLk6GJQsqaUBKTNV-1" source="Rgezvz7ngerWHo1BFbQd-16" target="Rgezvz7ngerWHo1BFbQd-2">
          <mxGeometry relative="1" as="geometry" />
        </mxCell>
        <mxCell id="Rgezvz7ngerWHo1BFbQd-33" style="edgeStyle=orthogonalEdgeStyle;rounded=0;orthogonalLoop=1;jettySize=auto;html=1;exitX=0.5;exitY=0;exitDx=0;exitDy=0;exitPerimeter=0;entryX=1;entryY=0.5;entryDx=0;entryDy=0;" edge="1" parent="WIyWlLk6GJQsqaUBKTNV-1" source="Rgezvz7ngerWHo1BFbQd-16" target="Rgezvz7ngerWHo1BFbQd-4">
          <mxGeometry relative="1" as="geometry" />
        </mxCell>
        <mxCell id="Rgezvz7ngerWHo1BFbQd-34" style="edgeStyle=orthogonalEdgeStyle;rounded=0;orthogonalLoop=1;jettySize=auto;html=1;exitX=0;exitY=0.3333333333333333;exitDx=0;exitDy=0;exitPerimeter=0;entryX=1;entryY=0.5;entryDx=0;entryDy=0;" edge="1" parent="WIyWlLk6GJQsqaUBKTNV-1" source="Rgezvz7ngerWHo1BFbQd-16" target="Rgezvz7ngerWHo1BFbQd-23">
          <mxGeometry relative="1" as="geometry" />
        </mxCell>
        <mxCell id="Rgezvz7ngerWHo1BFbQd-16" value="Usta" style="shape=umlActor;verticalLabelPosition=bottom;verticalAlign=top;html=1;outlineConnect=0;fontFamily=Comic Sans MS;" vertex="1" parent="WIyWlLk6GJQsqaUBKTNV-1">
          <mxGeometry x="780" y="200" width="30" height="60" as="geometry" />
        </mxCell>
        <mxCell id="Rgezvz7ngerWHo1BFbQd-36" style="edgeStyle=orthogonalEdgeStyle;rounded=0;orthogonalLoop=1;jettySize=auto;html=1;exitX=0;exitY=0.5;exitDx=0;exitDy=0;" edge="1" parent="WIyWlLk6GJQsqaUBKTNV-1" source="Rgezvz7ngerWHo1BFbQd-23" target="Rgezvz7ngerWHo1BFbQd-1">
          <mxGeometry relative="1" as="geometry" />
        </mxCell>
        <mxCell id="Rgezvz7ngerWHo1BFbQd-23" value="Ish izlash" style="ellipse;whiteSpace=wrap;html=1;fontFamily=Comic Sans MS;" vertex="1" parent="WIyWlLk6GJQsqaUBKTNV-1">
          <mxGeometry x="575" y="140" width="120" height="80" as="geometry" />
        </mxCell>
        <mxCell id="Rgezvz7ngerWHo1BFbQd-24" value="Yetkazib berish" style="ellipse;whiteSpace=wrap;html=1;fontFamily=Comic Sans MS;" vertex="1" parent="WIyWlLk6GJQsqaUBKTNV-1">
          <mxGeometry x="160" y="310" width="120" height="80" as="geometry" />
        </mxCell>
        <mxCell id="Rgezvz7ngerWHo1BFbQd-43" style="edgeStyle=orthogonalEdgeStyle;rounded=0;orthogonalLoop=1;jettySize=auto;html=1;exitX=0.5;exitY=0;exitDx=0;exitDy=0;" edge="1" parent="WIyWlLk6GJQsqaUBKTNV-1" source="Rgezvz7ngerWHo1BFbQd-25" target="Rgezvz7ngerWHo1BFbQd-24">
          <mxGeometry relative="1" as="geometry" />
        </mxCell>
        <mxCell id="Rgezvz7ngerWHo1BFbQd-25" value="Omborxona" style="ellipse;whiteSpace=wrap;html=1;fontFamily=Comic Sans MS;" vertex="1" parent="WIyWlLk6GJQsqaUBKTNV-1">
          <mxGeometry x="160" y="550" width="120" height="80" as="geometry" />
        </mxCell>
        <mxCell id="Rgezvz7ngerWHo1BFbQd-39" style="edgeStyle=orthogonalEdgeStyle;rounded=0;orthogonalLoop=1;jettySize=auto;html=1;exitX=0.5;exitY=1;exitDx=0;exitDy=0;" edge="1" parent="WIyWlLk6GJQsqaUBKTNV-1" source="Rgezvz7ngerWHo1BFbQd-26">
          <mxGeometry relative="1" as="geometry">
            <mxPoint x="628" y="550" as="targetPoint" />
          </mxGeometry>
        </mxCell>
        <mxCell id="Rgezvz7ngerWHo1BFbQd-26" value="Zakas olish" style="ellipse;whiteSpace=wrap;html=1;fontFamily=Comic Sans MS;" vertex="1" parent="WIyWlLk6GJQsqaUBKTNV-1">
          <mxGeometry x="573" y="330" width="110" height="70" as="geometry" />
        </mxCell>
        <mxCell id="Rgezvz7ngerWHo1BFbQd-42" style="edgeStyle=orthogonalEdgeStyle;rounded=0;orthogonalLoop=1;jettySize=auto;html=1;exitX=0;exitY=0.5;exitDx=0;exitDy=0;entryX=1;entryY=0.5;entryDx=0;entryDy=0;" edge="1" parent="WIyWlLk6GJQsqaUBKTNV-1" source="Rgezvz7ngerWHo1BFbQd-28" target="Rgezvz7ngerWHo1BFbQd-25">
          <mxGeometry relative="1" as="geometry" />
        </mxCell>
        <mxCell id="Rgezvz7ngerWHo1BFbQd-28" value="Controller" style="ellipse;whiteSpace=wrap;html=1;fontFamily=Comic Sans MS;" vertex="1" parent="WIyWlLk6GJQsqaUBKTNV-1">
          <mxGeometry x="370" y="550" width="120" height="80" as="geometry" />
        </mxCell>
        <mxCell id="Rgezvz7ngerWHo1BFbQd-37" style="edgeStyle=orthogonalEdgeStyle;rounded=0;orthogonalLoop=1;jettySize=auto;html=1;exitX=0.5;exitY=1;exitDx=0;exitDy=0;entryX=0.565;entryY=0.017;entryDx=0;entryDy=0;entryPerimeter=0;" edge="1" parent="WIyWlLk6GJQsqaUBKTNV-1" source="Rgezvz7ngerWHo1BFbQd-23" target="Rgezvz7ngerWHo1BFbQd-26">
          <mxGeometry relative="1" as="geometry" />
        </mxCell>
        <mxCell id="Rgezvz7ngerWHo1BFbQd-41" style="edgeStyle=orthogonalEdgeStyle;rounded=0;orthogonalLoop=1;jettySize=auto;html=1;exitX=0;exitY=0.5;exitDx=0;exitDy=0;entryX=1;entryY=0.5;entryDx=0;entryDy=0;" edge="1" parent="WIyWlLk6GJQsqaUBKTNV-1" source="Rgezvz7ngerWHo1BFbQd-40" target="Rgezvz7ngerWHo1BFbQd-28">
          <mxGeometry relative="1" as="geometry" />
        </mxCell>
        <mxCell id="Rgezvz7ngerWHo1BFbQd-40" value="Mahsulot tayyor" style="ellipse;whiteSpace=wrap;html=1;" vertex="1" parent="WIyWlLk6GJQsqaUBKTNV-1">
          <mxGeometry x="573" y="550" width="120" height="80" as="geometry" />
        </mxCell>
        <mxCell id="Rgezvz7ngerWHo1BFbQd-44" style="edgeStyle=orthogonalEdgeStyle;rounded=0;orthogonalLoop=1;jettySize=auto;html=1;exitX=0.5;exitY=0;exitDx=0;exitDy=0;entryX=1;entryY=1;entryDx=0;entryDy=0;entryPerimeter=0;" edge="1" parent="WIyWlLk6GJQsqaUBKTNV-1" source="Rgezvz7ngerWHo1BFbQd-24" target="Rgezvz7ngerWHo1BFbQd-0">
          <mxGeometry relative="1" as="geometry" />
        </mxCell>
      </root>
    </mxGraphModel>
  </diagram>
</mxfile>
